<svg width="601" height="600" viewBox="0 0 601 600" fill="none" xmlns="http://www.w3.org/2000/svg">
<path d="M0.5 150C0.5 67.1573 67.6573 0 150.5 0H450.5C533.343 0 600.5 67.1573 600.5 150V450C600.5 532.843 533.343 600 450.5 600H150.5C67.6573 600 0.5 532.843 0.5 450V150Z" fill="#141414"/>
<g filter="url(#filter0_i_135_284)">
<path d="M485.164 226.145L475.649 297.852C472.364 296.945 469.078 296.322 465.793 295.982C462.508 295.643 459.223 295.473 455.938 295.473C447.555 295.473 439.569 296.605 431.979 298.871C424.389 301.023 417.649 304.365 411.758 308.896C405.981 313.428 401.336 319.092 397.824 325.889C394.426 332.686 392.727 340.672 392.727 349.848C392.727 355.738 393.633 360.836 395.446 365.141C397.371 369.445 400.033 373.014 403.432 375.846C406.83 378.678 410.852 380.773 415.496 382.133C420.141 383.492 425.239 384.172 430.789 384.172C434.981 384.172 439.342 383.719 443.873 382.812C448.405 381.906 452.879 380.717 457.297 379.244C461.715 377.771 466.02 376.072 470.211 374.146C474.403 372.221 478.254 370.238 481.766 368.199L474.969 448.062C470.551 450.328 465.737 452.367 460.526 454.18C455.428 455.879 450.16 457.408 444.723 458.768C439.285 460.014 433.848 460.977 428.41 461.656C422.973 462.336 417.762 462.676 412.778 462.676C398.391 462.676 384.967 460.014 372.506 454.689C360.045 449.365 349.227 442.059 340.051 432.77C330.875 423.48 323.625 412.549 318.301 399.975C313.09 387.287 310.485 373.637 310.485 359.023C310.485 339.652 313.26 321.414 318.811 304.309C324.362 287.09 332.518 272.023 343.28 259.109C354.041 246.195 367.352 236 383.211 228.523C399.184 221.047 417.535 217.309 438.266 217.309C446.082 217.309 454.069 217.932 462.225 219.178C470.494 220.424 478.141 222.746 485.164 226.145Z" fill="white"/>
</g>
<g filter="url(#filter1_i_135_284)">
<path d="M315.666 304.602C315.666 320.121 312.947 333.715 307.51 345.383C302.186 356.938 294.822 366.566 285.42 374.27C276.131 381.973 265.199 387.75 252.625 391.602C240.164 395.453 226.74 397.379 212.354 397.379C206.803 397.379 200.686 396.643 194.002 395.17C187.432 393.697 180.748 391.885 173.951 389.732C167.154 387.467 160.584 385.088 154.24 382.596C148.01 379.99 142.459 377.555 137.588 375.289L145.064 305.281C154.693 311.059 165.342 315.477 177.01 318.535C188.791 321.48 200.346 322.953 211.674 322.953C213.826 322.953 216.432 322.896 219.49 322.783C222.549 322.557 225.438 322.047 228.156 321.254C230.988 320.348 233.367 319.045 235.293 317.346C237.219 315.646 238.182 313.211 238.182 310.039C238.182 307.887 237.502 306.074 236.143 304.602C234.783 303.016 233.027 301.77 230.875 300.863C228.723 299.844 226.287 299.107 223.568 298.654C220.85 298.088 218.188 297.691 215.582 297.465C212.977 297.238 210.541 297.125 208.275 297.125C206.01 297.125 204.197 297.125 202.838 297.125C193.096 297.125 184.203 295.426 176.16 292.027C168.23 288.629 161.377 283.928 155.6 277.924C149.936 271.807 145.518 264.613 142.346 256.344C139.174 247.961 137.588 238.898 137.588 229.156C137.588 215.789 140.25 203.838 145.574 193.303C151.012 182.654 158.205 173.648 167.154 166.285C176.217 158.809 186.582 153.088 198.25 149.123C209.918 145.158 221.982 143.176 234.443 143.176C239.994 143.176 245.715 143.402 251.605 143.855C257.496 144.195 263.33 144.875 269.107 145.895C274.998 146.914 280.719 148.217 286.27 149.803C291.82 151.389 297.088 153.371 302.072 155.75L295.615 224.738C287.912 222.133 279.812 219.98 271.316 218.281C262.934 216.469 254.721 215.562 246.678 215.562C245.205 215.562 243.279 215.619 240.9 215.732C238.635 215.732 236.199 215.902 233.594 216.242C231.102 216.469 228.553 216.865 225.947 217.432C223.342 217.998 221.02 218.791 218.98 219.811C216.941 220.717 215.299 221.963 214.053 223.549C212.807 225.135 212.24 227.004 212.354 229.156C212.467 231.648 213.373 233.688 215.072 235.273C216.885 236.746 219.15 237.936 221.869 238.842C224.701 239.635 227.76 240.201 231.045 240.541C234.443 240.881 237.785 241.107 241.07 241.221C244.355 241.221 247.414 241.221 250.246 241.221C253.078 241.107 255.4 241.164 257.213 241.391C266.275 241.957 274.432 243.883 281.682 247.168C288.932 250.453 295.049 254.814 300.033 260.252C305.131 265.689 308.982 272.203 311.588 279.793C314.307 287.27 315.666 295.539 315.666 304.602Z" fill="white"/>
</g>
<defs>
<filter id="filter0_i_135_284" x="310.485" y="217.309" width="178.68" height="249.367" filterUnits="userSpaceOnUse" color-interpolation-filters="sRGB">
<feFlood flood-opacity="0" result="BackgroundImageFix"/>
<feBlend mode="normal" in="SourceGraphic" in2="BackgroundImageFix" result="shape"/>
<feColorMatrix in="SourceAlpha" type="matrix" values="0 0 0 0 0 0 0 0 0 0 0 0 0 0 0 0 0 0 127 0" result="hardAlpha"/>
<feOffset dx="4" dy="4"/>
<feGaussianBlur stdDeviation="5"/>
<feComposite in2="hardAlpha" operator="arithmetic" k2="-1" k3="1"/>
<feColorMatrix type="matrix" values="0 0 0 0 0 0 0 0 0 0 0 0 0 0 0 0 0 0 0.25 0"/>
<feBlend mode="normal" in2="shape" result="effect1_innerShadow_135_284"/>
</filter>
<filter id="filter1_i_135_284" x="137.588" y="143.176" width="182.078" height="258.203" filterUnits="userSpaceOnUse" color-interpolation-filters="sRGB">
<feFlood flood-opacity="0" result="BackgroundImageFix"/>
<feBlend mode="normal" in="SourceGraphic" in2="BackgroundImageFix" result="shape"/>
<feColorMatrix in="SourceAlpha" type="matrix" values="0 0 0 0 0 0 0 0 0 0 0 0 0 0 0 0 0 0 127 0" result="hardAlpha"/>
<feOffset dx="4" dy="4"/>
<feGaussianBlur stdDeviation="5"/>
<feComposite in2="hardAlpha" operator="arithmetic" k2="-1" k3="1"/>
<feColorMatrix type="matrix" values="0 0 0 0 0 0 0 0 0 0 0 0 0 0 0 0 0 0 0.25 0"/>
<feBlend mode="normal" in2="shape" result="effect1_innerShadow_135_284"/>
</filter>
</defs>
</svg>
