<svg width="219" height="270" viewBox="0 0 219 270" fill="none" xmlns="http://www.w3.org/2000/svg">
<g filter="url(#filter0_i_133_280)">
<path d="M216.934 53.9648L210.918 99.2969C208.841 98.724 206.764 98.3301 204.688 98.1152C202.611 97.9004 200.534 97.793 198.457 97.793C193.158 97.793 188.109 98.5091 183.311 99.9414C178.512 101.302 174.251 103.415 170.527 106.279C166.875 109.144 163.939 112.725 161.719 117.021C159.57 121.318 158.496 126.367 158.496 132.168C158.496 135.892 159.069 139.115 160.215 141.836C161.432 144.557 163.115 146.813 165.264 148.604C167.412 150.394 169.954 151.719 172.891 152.578C175.827 153.438 179.049 153.867 182.559 153.867C185.208 153.867 187.965 153.581 190.83 153.008C193.695 152.435 196.523 151.683 199.316 150.752C202.109 149.821 204.831 148.747 207.48 147.529C210.13 146.312 212.565 145.059 214.785 143.77L210.488 194.258C207.695 195.69 204.652 196.979 201.357 198.125C198.135 199.199 194.805 200.166 191.367 201.025C187.93 201.813 184.492 202.422 181.055 202.852C177.617 203.281 174.323 203.496 171.172 203.496C162.077 203.496 153.59 201.813 145.713 198.447C137.835 195.081 130.996 190.462 125.195 184.59C119.395 178.717 114.811 171.807 111.445 163.857C108.151 155.837 106.504 147.207 106.504 137.969C106.504 125.723 108.258 114.193 111.768 103.379C115.277 92.4935 120.433 82.9688 127.236 74.8047C134.04 66.6406 142.454 60.1953 152.48 55.4688C162.578 50.7422 174.18 48.3789 187.285 48.3789C192.227 48.3789 197.275 48.7728 202.432 49.5605C207.66 50.3483 212.493 51.8164 216.934 53.9648Z" fill="white"/>
</g>
<g filter="url(#filter1_i_133_280)">
<path d="M115.479 102.852C115.479 112.663 113.76 121.257 110.322 128.633C106.956 135.938 102.301 142.025 96.3574 146.895C90.485 151.764 83.5742 155.417 75.625 157.852C67.7474 160.286 59.2611 161.504 50.166 161.504C46.6569 161.504 42.7897 161.038 38.5645 160.107C34.4108 159.176 30.1855 158.031 25.8887 156.67C21.5918 155.238 17.4382 153.734 13.4277 152.158C9.48893 150.511 5.97982 148.971 2.90039 147.539L7.62695 103.281C13.7142 106.934 20.446 109.727 27.8223 111.66C35.2702 113.522 42.5749 114.453 49.7363 114.453C51.097 114.453 52.7441 114.417 54.6777 114.346C56.6113 114.202 58.4375 113.88 60.1562 113.379C61.9466 112.806 63.4505 111.982 64.668 110.908C65.8854 109.834 66.4941 108.294 66.4941 106.289C66.4941 104.928 66.0645 103.783 65.2051 102.852C64.3457 101.849 63.2357 101.061 61.875 100.488C60.5143 99.8438 58.9746 99.3783 57.2559 99.0918C55.5371 98.7337 53.8542 98.4831 52.207 98.3398C50.5599 98.1966 49.0202 98.125 47.5879 98.125C46.1556 98.125 45.0098 98.125 44.1504 98.125C37.9915 98.125 32.3698 97.0508 27.2852 94.9023C22.2721 92.7539 17.9395 89.7819 14.2871 85.9863C10.7064 82.1191 7.91341 77.5716 5.9082 72.3438C3.90299 67.0443 2.90039 61.3151 2.90039 55.1562C2.90039 46.7057 4.58333 39.1504 7.94922 32.4902C11.3867 25.7585 15.9342 20.0651 21.5918 15.4102C27.321 10.6836 33.8737 7.06706 41.25 4.56055C48.6263 2.05404 56.2533 0.800781 64.1309 0.800781C67.64 0.800781 71.2565 0.94401 74.9805 1.23047C78.7044 1.44531 82.3926 1.875 86.0449 2.51953C89.7689 3.16406 93.3854 3.98763 96.8945 4.99023C100.404 5.99284 103.734 7.24609 106.885 8.75L102.803 52.3633C97.9329 50.7161 92.8125 49.3555 87.4414 48.2812C82.1419 47.1354 76.9499 46.5625 71.8652 46.5625C70.9342 46.5625 69.7168 46.5983 68.2129 46.6699C66.7806 46.6699 65.2409 46.7773 63.5938 46.9922C62.0182 47.1354 60.4069 47.3861 58.7598 47.7441C57.1126 48.1022 55.6445 48.6035 54.3555 49.248C53.0664 49.821 52.028 50.6087 51.2402 51.6113C50.4525 52.6139 50.0944 53.7956 50.166 55.1562C50.2376 56.7318 50.8105 58.0208 51.8848 59.0234C53.0306 59.9544 54.4629 60.7064 56.1816 61.2793C57.972 61.7806 59.9056 62.1387 61.9824 62.3535C64.1309 62.5684 66.2435 62.7116 68.3203 62.7832C70.3971 62.7832 72.3307 62.7832 74.1211 62.7832C75.9115 62.7116 77.3796 62.7474 78.5254 62.8906C84.2546 63.2487 89.4108 64.4661 93.9941 66.543C98.5775 68.6198 102.445 71.377 105.596 74.8145C108.818 78.252 111.253 82.3698 112.9 87.168C114.619 91.8945 115.479 97.1224 115.479 102.852Z" fill="white"/>
</g>
<defs>
<filter id="filter0_i_133_280" x="106.504" y="48.3789" width="114.43" height="159.117" filterUnits="userSpaceOnUse" color-interpolation-filters="sRGB">
<feFlood flood-opacity="0" result="BackgroundImageFix"/>
<feBlend mode="normal" in="SourceGraphic" in2="BackgroundImageFix" result="shape"/>
<feColorMatrix in="SourceAlpha" type="matrix" values="0 0 0 0 0 0 0 0 0 0 0 0 0 0 0 0 0 0 127 0" result="hardAlpha"/>
<feOffset dx="4" dy="4"/>
<feGaussianBlur stdDeviation="5"/>
<feComposite in2="hardAlpha" operator="arithmetic" k2="-1" k3="1"/>
<feColorMatrix type="matrix" values="0 0 0 0 0 0 0 0 0 0 0 0 0 0 0 0 0 0 0.25 0"/>
<feBlend mode="normal" in2="shape" result="effect1_innerShadow_133_280"/>
</filter>
<filter id="filter1_i_133_280" x="2.90039" y="0.800781" width="116.578" height="164.703" filterUnits="userSpaceOnUse" color-interpolation-filters="sRGB">
<feFlood flood-opacity="0" result="BackgroundImageFix"/>
<feBlend mode="normal" in="SourceGraphic" in2="BackgroundImageFix" result="shape"/>
<feColorMatrix in="SourceAlpha" type="matrix" values="0 0 0 0 0 0 0 0 0 0 0 0 0 0 0 0 0 0 127 0" result="hardAlpha"/>
<feOffset dx="4" dy="4"/>
<feGaussianBlur stdDeviation="5"/>
<feComposite in2="hardAlpha" operator="arithmetic" k2="-1" k3="1"/>
<feColorMatrix type="matrix" values="0 0 0 0 0 0 0 0 0 0 0 0 0 0 0 0 0 0 0.25 0"/>
<feBlend mode="normal" in2="shape" result="effect1_innerShadow_133_280"/>
</filter>
</defs>
</svg>
